<svg xmlns="http://www.w3.org/2000/svg" version="1.1" xmlns:xlink="http://www.w3.org/1999/xlink" xmlns:svgjs="http://svgjs.dev/svgjs" viewBox="0 0 1422 800"><defs><filter id="uuunion-blur" x="-100%" y="-100%" width="400%" height="400%" color-interpolation-filters="sRGB">
        <feGaussianBlur in="SourceGraphic" stdDeviation="22 0" result="blur"></feGaussianBlur>
        <feDropShadow stdDeviation="38.15384615384615" in="blur" dx="31" dy="31" flood-color="hsl(167, 52%, 78%)" flood-opacity="0.31" x="0%" y="0%" width="100%" height="100%"></feDropShadow>
      </filter><filter id="uuunion-blur2" x="-100%" y="-100%" width="400%" height="400%" color-interpolation-filters="sRGB">
        <feGaussianBlur in="SourceGraphic" stdDeviation="22 0" result="blur"></feGaussianBlur>
        <feDropShadow stdDeviation="38.15384615384615" in="blur" dx="-31" dy="-31" flood-color="hsl(167, 52%, 78%)" flood-opacity="0.31" x="0%" y="0%" width="100%" height="100%"></feDropShadow>
      </filter><linearGradient gradientTransform="rotate(20, 0.5, 0.5)" x1="50%" y1="0%" x2="50%" y2="100%" id="uuunion-grad"><stop stop-color="hsl(1.4, 100%, 67%)" offset="10%"></stop><stop stop-color="hsl(167, 52%, 78%)" offset="90%"></stop></linearGradient><linearGradient gradientTransform="rotate(135, 0.5, 0.5)" x1="50%" y1="0%" x2="50%" y2="100%" id="uuunion-grad2"><stop stop-color="hsl(1.4, 100%, 67%)" offset="25%"></stop><stop stop-color="hsl(167, 52%, 78%)" offset="100%"></stop></linearGradient><linearGradient gradientTransform="rotate(333, 0.5, 0.5)" x1="50%" y1="0%" x2="50%" y2="100%" id="uuunion-grad3"><stop stop-color="hsl(1.4, 100%, 67%)" offset="0%"></stop><stop stop-color="hsl(167, 52%, 78%)" offset="75%"></stop></linearGradient></defs><path d="M-131.34 -88.79Q-118.36 -88.46 -105.37 -87.38 -92.39 -85.67 -79.41 -83.45 -66.42 -80.94 -53.44 -78.35 -40.46 -75.89 -27.48 -73.8 -14.49 -72.25 -1.51 -71.37 11.46 -71.24 24.44 -71.87 37.43 -73.22 50.41 -75.15 63.39 -77.5 76.38 -80.08 89.36 -82.64 102.34 -84.98 115.32 -86.88 128.31 -88.18 141.29 -88.77 154.27 -88.59 167.25 -87.67 180.24 -86.07 193.22 -83.95 206.2 -81.48 219.19 -78.88 232.17 -76.38 245.15 -74.2 258.13 -72.52 271.12 -71.49 284.1 -71.2 297.08 -71.68 310.07 -72.88 323.05 -74.7 336.03 -76.99 349.01 -79.53 362 -82.12 374.98 -84.52 387.96 -86.53 400.95 -87.96 413.93 -88.71 426.91 -88.69 439.89 -87.92 452.88 -86.45 465.86 -84.43 478.84 -82.02 491.83 -79.43 504.81 -76.89 517.79 -74.62 530.77 -72.82 543.76 -71.65 556.74 -71.2 569.72 -71.52 582.7 -72.57 595.69 -74.28 608.67 -76.48 621.65 -78.99 634.64 -81.58 647.62 -84.04 660.6 -86.15 673.58 -87.72 686.57 -88.61 699.55 -88.76 712.53 -88.14 725.52 -86.81 738.5 -84.89 751.48 -82.54 764.46 -79.97 777.45 -77.4 790.43 -75.06 803.41 -73.15 816.4 -71.83 829.38 -71.23 842.36 -71.39 855.34 -72.3 868.33 -73.87 881.31 -75.99 894.29 -78.45 907.28 -81.05 920.26 -83.55 933.24 -85.75 946.22 -87.44 959.21 -88.49 972.19 -88.79 985.17 -88.33 998.16 -87.14 1011.14 -85.33 1024.12 -83.06 1037.1 -80.52 1050.09 -77.93 1063.07 -75.52 1076.05 -73.51 1089.04 -72.05 1102.02 -71.29 1115 -71.29 1127.98 -72.05 1140.97 -73.5 1153.95 -75.51 1166.93 -77.92 1179.92 -80.5 1192.9 -83.05 1205.88 -85.32 1218.86 -87.13 1231.85 -88.33 1244.83 -88.79 1257.81 -88.49 1270.8 -87.45 1283.78 -85.76 1296.76 -83.56 1309.74 -81.06 1322.73 -78.46 1335.71 -76 1348.69 -73.89 1361.68 -72.3 1374.66 -71.39 1387.64 -71.23 1400.63 -71.83 1413.61 -73.14 1426.59 -75.05 1439.57 -77.39 1452.56 -79.96 1465.54 -82.53 1478.52 -84.88 1491.51 -86.8 1504.49 -88.13 1517.47 -88.76 1530.45 -88.62 1531.09 -73.84 1534.93 -59.06 1541.61 -44.28 1550.48 -29.5 1560.67 -14.72 1571.21 0.05 1581.06 14.83 1589.28 29.61 1595.08 44.39 1597.88 59.17 1597.42 73.95 1593.74 88.73 1587.19 103.51 1578.43 118.29 1568.28 133.07 1557.74 147.85 1547.82 162.63 1539.49 177.41 1533.55 192.19 1530.58 206.97 1530.87 221.75 1534.38 236.53 1540.79 251.31 1549.46 266.09 1559.55 280.86 1570.1 295.64 1580.08 310.42 1588.51 325.2 1594.6 339.98 1597.73 354.76 1597.62 369.54 1594.27 384.32 1588.01 399.1 1579.44 413.88 1569.39 428.66 1558.84 443.44 1548.81 458.22 1540.27 473 1534.05 487.78 1530.74 502.56 1530.68 517.34 1533.86 532.12 1539.98 546.9 1548.45 561.68 1558.44 576.46 1568.99 591.24 1579.07 606.02 1587.72 620.8 1594.08 635.58 1597.55 650.35 1597.79 665.13 1594.77 679.91 1588.8 694.69 1580.43 709.47 1570.5 724.25 1559.96 739.03 1549.82 753.81 1541.08 768.59 1534.58 783.37 1530.94 798.15 1530.53 812.93 1533.38 827.71 1536.76 849.69 1521.15 858.54 1507.99 862.05 1494.83 867.12 1481.67 873.32 1468.51 880.09 1455.35 886.86 1442.2 893.03 1429.04 898.07 1415.88 901.53 1402.72 903.11 1389.56 902.68 1376.4 900.27 1363.24 896.1 1350.09 890.53 1336.93 884.03 1323.77 877.19 1310.61 870.59 1297.45 864.8 1284.29 860.35 1271.14 857.6 1257.98 856.81 1244.82 858.03 1231.66 861.17 1218.5 865.95 1205.34 871.95 1192.18 878.66 1179.03 885.48 1165.87 891.82 1152.71 897.13 1139.55 900.95 1126.39 902.94 1113.23 902.94 1100.07 900.93 1086.92 897.1 1073.76 891.78 1060.6 885.44 1047.44 878.62 1034.28 871.92 1021.12 865.92 1007.97 861.15 994.81 858.02 981.65 856.81 968.49 857.61 955.33 860.37 942.17 864.83 929.01 870.62 915.86 877.23 902.7 884.07 889.54 890.56 876.38 896.13 863.22 900.29 850.06 902.69 836.91 903.11 823.75 901.51 810.59 898.04 797.43 893 784.27 886.82 771.11 880.05 757.95 873.28 744.8 867.09 731.64 862.02 718.48 858.52 705.32 856.89 692.16 857.28 679 859.64 665.85 863.78 652.69 869.33 639.53 875.8 626.37 882.65 613.21 889.26 600.05 895.07 586.9 899.56 573.74 902.35 560.58 903.19 547.42 902.01 534.26 898.91 521.1 894.16 507.94 888.18 494.79 881.49 481.63 874.67 468.47 868.31 455.31 862.97 442.15 859.11 428.99 857.07 415.84 857.03 402.68 858.99 389.52 862.78 376.36 868.07 363.2 874.4 350.04 881.22 336.89 887.93 323.73 893.94 310.57 898.75 297.41 901.92 284.25 903.18 271.09 902.42 257.93 899.71 244.78 895.28 231.62 889.51 218.46 882.92 205.3 876.08 192.14 869.57 178.98 863.97 165.83 859.77 152.67 857.33 139.51 856.87 126.35 858.42 113.19 861.85 100.03 866.86 86.88 873.01 73.72 879.78 60.56 886.56 47.4 892.77 34.24 897.87 21.08 901.41 7.93 903.08 -5.22 902.74 -18.38 900.43 -31.54 896.33 -44.7 890.81 -57.86 884.34 -71.01 877.5 -84.17 870.88 -97.33 865.04 -110.49 860.52 -123.65 857.69 -136.81 856.8 -134.15 842.02 -132.28 827.25 -131.36 812.47 -131.5 797.7 -132.66 782.92 -134.75 768.15 -137.56 753.37 -140.82 738.6 -144.21 723.82 -147.41 709.05 -150.09 694.27 -152.01 679.5 -152.98 664.72 -152.91 649.95 -151.79 635.17 -149.75 620.4 -146.97 605.62 -143.73 590.85 -140.34 576.07 -137.12 561.3 -134.4 546.52 -132.43 531.75 -131.41 516.97 -131.43 502.2 -132.49 487.42 -134.49 472.65 -137.24 457.87 -140.46 443.1 -143.86 428.32 -147.09 413.55 -149.84 398.77 -151.85 384 -152.93 369.22 -152.97 354.45 -151.96 339.67 -150 324.9 -147.29 310.12 -144.08 295.35 -140.69 280.57 -137.45 265.8 -134.66 251.02 -132.6 236.25 -131.47 221.47 -131.38 206.7 -132.33 191.92 -134.24 177.15 -136.92 162.37 -140.11 147.6 -143.5 132.82 -146.76 118.05 -149.58 103.27 -151.68 88.5 -152.86 73.72 -153.01 58.95 -152.11 44.17 -150.25 29.4 -147.61 14.62 -144.44 -0.14 -141.05 -14.92 -137.78 -29.69 -134.93 -44.47 -132.78 -59.24 -131.54 -74.02 -131.34 -88.79" fill="url(#uuunion-grad)"></path><path d="M-131.35 -88.79Q-131.55 -74.02 -132.79 -59.24 -134.94 -44.47 -137.79 -29.69 -141.06 -14.92 -144.45 -0.14 -147.62 14.62 -150.26 29.4 -152.12 44.17 -153.02 58.95 -152.87 73.72 -151.69 88.5 -149.59 103.27 -146.77 118.05 -143.51 132.82 -140.12 147.6 -136.93 162.37 -134.25 177.15 -132.34 191.92 -131.39 206.7 -131.48 221.47 -132.61 236.25 -134.67 251.02 -137.46 265.8 -140.7 280.57 -144.09 295.35 -147.3 310.12 -150.01 324.9 -151.97 339.67 -152.98 354.45 -152.94 369.22 -151.86 384 -142.77 384.25 -133.67 385.12 -124.58 386.56 -115.49 388.53 -106.39 390.94 -97.3 393.7 -88.2 396.71 -79.11 399.85 -70.01 402.99 -60.92 406.02 -51.82 408.81 -42.73 411.26 -33.63 413.27 -24.54 414.76 -7.35 415.91 -4.32 415.98 6.84 412.15 18.04 407.41 29.28 401.85 40.56 395.63 51.87 388.94 63.2 381.99 74.57 375.02 85.96 368.26 97.36 361.93 108.78 356.21 120.22 351.27 131.66 347.21 143.1 344.07 154.54 341.85 165.98 340.5 177.41 339.9 188.83 339.89 200.23 340.28 211.62 340.86 222.98 341.4 234.33 341.69 245.64 341.51 256.92 340.69 268.18 339.1 279.4 336.66 290.58 333.31 301.73 329.09 312.85 324.06 323.92 318.35 334.96 312.11 345.95 305.54 356.91 298.85 367.83 292.25 378.72 285.94 389.57 280.13 400.38 274.97 411.17 270.58 421.92 267.03 432.65 264.33 443.35 262.47 454.03 261.35 464.69 260.86 475.33 260.82 485.96 261.05 496.59 261.34 507.21 261.49 517.83 261.31 528.45 260.61 539.08 259.25 549.72 257.14 560.37 254.21 571.05 250.46 581.75 245.94 592.48 240.72 603.25 234.95 614.04 228.79 624.88 222.41 635.76 216.03 646.69 209.84 657.67 204.01 668.7 198.72 679.79 194.08 690.93 190.19 702.14 187.08 713.4 184.75 724.73 183.15 736.12 182.17 747.58 181.69 759.1 181.53 770.68 181.53 782.33 181.49 794.04 181.22 805.82 180.55 817.65 179.35 829.54 177.49 841.49 174.9 853.49 171.57 865.53 167.5 877.62 162.76 889.76 157.45 901.93 151.7 914.13 145.69 926.36 139.58 938.61 133.56 950.88 127.8 963.15 122.45 975.44 117.65 987.72 113.5 999.99 110.04 1012.25 107.3 1024.49 105.25 1036.7 103.82 1048.88 102.89 1061.02 102.34 1073.12 102 1085.16 101.7 1097.14 101.28 1109.06 100.58 1120.91 99.44 1132.68 97.75 1144.37 95.43 1155.98 92.45 1167.49 88.78 1178.92 84.48 1190.24 79.61 1201.46 74.3 1212.57 68.66 1223.58 62.87 1234.48 57.07 1245.27 51.44 1255.95 46.12 1266.51 41.24 1276.96 36.9 1287.3 33.17 1297.53 30.09 1307.65 27.64 1317.66 25.77 1327.57 24.42 1337.38 23.46 1347.09 22.76 1356.72 22.17 1366.25 21.54 1375.71 20.72 1385.09 19.58 1394.4 17.99 1403.65 15.86 1412.84 13.15 1422 9.83 1411.24 -7.92 1401.9 -25.68 1395.2 -43.44 1392.02 -61.2 1392.78 -78.95 1397.39 -96.71 1405.23 -114.47 1415.27 -132.23 1403.03 -132.13 1390.79 -132.61 1378.55 -133.64 1366.31 -135.15 1354.07 -137.01 1341.82 -139.1 1329.58 -141.26 1317.34 -143.32 1305.1 -145.13 1292.86 -146.56 1280.62 -147.5 1268.38 -147.89 1256.14 -147.68 1243.9 -146.91 1231.66 -145.62 1219.42 -143.91 1207.18 -141.91 1194.94 -139.77 1182.7 -137.64 1170.46 -135.69 1158.22 -134.06 1145.98 -132.87 1133.74 -132.21 1121.5 -132.13 1109.26 -132.64 1097.02 -133.69 1084.78 -135.21 1072.54 -137.09 1060.3 -139.18 1048.06 -141.33 1035.81 -143.39 1023.57 -145.19 1011.33 -146.6 999.09 -147.53 986.85 -147.89 974.61 -147.67 962.37 -146.87 950.13 -145.56 937.89 -143.84 925.65 -141.84 913.41 -139.69 901.17 -137.57 888.93 -135.63 876.69 -134.01 864.45 -132.84 852.21 -132.2 839.97 -132.14 827.73 -132.67 815.49 -133.74 803.25 -135.27 791.01 -137.16 778.77 -139.26 766.53 -141.41 754.29 -143.46 742.04 -145.25 729.8 -146.65 717.56 -147.55 705.32 -147.89 693.08 -147.65 680.84 -146.83 668.6 -145.51 656.36 -143.78 644.12 -141.76 631.88 -139.61 619.64 -137.5 607.4 -135.56 595.16 -133.96 582.92 -132.81 570.68 -132.19 558.44 -132.15 546.2 -132.7 533.96 -133.79 521.72 -135.34 509.48 -137.23 497.24 -139.34 485 -141.49 472.76 -143.53 460.52 -145.31 448.27 -146.69 436.03 -147.57 423.79 -147.89 411.55 -147.63 399.31 -146.79 387.07 -145.45 374.83 -143.71 362.59 -141.68 350.35 -139.54 338.11 -137.42 325.87 -135.5 313.63 -133.91 301.39 -132.78 289.15 -132.18 276.91 -132.16 264.67 -132.73 252.43 -133.83 240.19 -135.4 227.95 -137.31 215.71 -139.41 203.47 -141.56 191.23 -143.6 178.99 -145.36 166.75 -146.73 154.5 -147.6 142.26 -147.89 130.02 -147.61 117.78 -146.75 105.54 -145.4 93.3 -143.64 81.06 -141.61 68.82 -139.46 56.58 -137.35 44.34 -135.44 32.1 -133.86 19.86 -132.74 7.62 -132.17 -4.61 -132.17 -16.85 -132.76 -29.09 -133.88 -41.33 -135.46 -53.57 -137.38 -65.81 -139.49 -78.05 -141.64 -90.29 -143.67 -102.53 -145.42 -114.77 -146.77 -127.01 -147.62 -142.3 -140.41 -139.79 -118.25 -135.07 -103.54 -131.35 -88.79" fill="url(#uuunion-grad2)" filter="url(#uuunion-blur)"></path><path d="M1433.28 334.54Q1442.26 333.73 1451.23 332.38 1460.21 330.55 1469.18 328.31 1478.15 325.75 1487.13 322.96 1496.1 320.06 1505.08 317.15 1514.05 314.36 1523.03 311.78 1532 309.53 1540.98 307.68 1549.95 306.31 1558.93 305.47 1567.9 305.2 1576.88 305.5 1587.25 322.74 1594.6 339.98 1597.94 357.23 1596.85 374.47 1591.47 391.71 1582.5 408.95 1571.13 426.2 1558.84 443.44 1547.26 460.68 1537.9 477.93 1532 495.17 1530.33 512.41 1533.12 529.65 1539.98 546.9 1550.04 564.14 1561.95 581.38 1574.15 598.63 1585.05 615.87 1593.21 633.11 1597.55 650.35 1597.51 667.6 1593.09 684.84 1584.87 702.08 1573.93 719.33 1561.71 736.57 1549.82 753.81 1539.82 771.05 1533.02 788.3 1530.32 805.54 1532.08 822.78 1538.05 840.03 1547.46 857.27 1535.39 856.85 1523.32 858.13 1511.25 861.02 1499.18 865.29 1487.12 870.65 1475.05 876.69 1462.98 882.98 1450.91 889.04 1438.84 894.44 1426.77 898.79 1414.7 901.75 1402.63 903.11 1390.56 902.78 1378.49 900.78 1366.42 897.25 1354.35 892.46 1342.28 886.75 1330.21 880.54 1318.14 874.3 1306.07 868.47 1294 863.49 1281.93 859.72 1269.86 857.44 1257.79 856.81 1245.72 857.88 1233.65 860.58 1221.58 864.7 1209.51 869.95 1197.44 875.93 1185.37 882.21 1173.3 888.33 1161.23 893.83 1149.16 898.32 1137.09 901.47 1125.02 903.04 1112.96 902.92 1100.89 901.11 1088.82 897.76 1076.75 893.1 1064.68 887.48 1052.61 881.31 1040.54 875.05 1028.47 869.15 1016.4 864.04 1004.33 860.1 992.26 857.63 980.19 856.8 968.12 857.66 956.05 860.17 943.98 864.13 931.91 869.26 919.84 875.17 907.77 881.44 895.7 887.6 883.63 893.21 871.56 897.84 859.49 901.16 847.42 902.94 835.35 903.02 823.28 901.42 811.21 898.24 799.14 893.73 787.07 888.21 775 882.08 762.93 875.8 750.86 869.83 738.79 864.61 726.73 860.51 714.66 857.85 702.59 856.81 690.52 857.47 678.45 859.78 666.38 863.58 654.31 868.58 642.24 874.42 630.17 880.67 618.1 886.87 606.03 892.56 593.96 897.34 581.89 900.84 569.82 902.81 557.75 903.1 545.68 901.7 533.61 898.71 521.54 894.34 509.47 888.93 497.4 882.85 485.33 876.57 473.26 870.53 461.19 865.19 449.12 860.94 437.05 858.09 424.98 856.84 412.91 857.29 400.84 859.41 388.77 863.04 376.7 867.92 364.63 873.68 352.56 879.9 340.5 886.13 328.43 891.91 316.36 896.82 304.29 900.49 292.22 902.65 280.15 903.16 268.08 901.96 256.01 899.16 243.94 894.94 231.87 889.63 219.8 883.61 207.73 877.33 195.66 871.24 183.59 865.8 171.52 861.39 159.45 858.35 147.38 856.9 135.31 857.15 123.24 859.07 111.17 862.53 99.1 867.26 87.03 872.94 74.96 879.13 62.89 885.38 50.82 891.24 38.75 896.27 26.68 900.11 9.19 897.76 4.77 882.89 5.53 872.74 6.01 862.59 6.18 852.44 6.05 842.29 5.49 827.07 5.86 822 17.53 814.81 29.18 806.03 40.82 795.85 52.48 784.59 64.17 772.64 75.91 760.44 87.72 748.45 99.62 737.11 111.6 726.8 123.69 717.81 135.87 710.35 148.16 704.5 160.55 700.21 173.04 697.32 185.62 695.56 198.27 694.57 210.99 693.95 223.76 693.26 236.57 692.08 249.4 690.02 262.23 686.78 275.05 682.14 287.84 675.98 300.58 668.31 313.27 659.26 325.89 649.05 338.43 637.99 350.88 626.47 363.24 614.88 375.51 603.65 387.69 593.13 399.77 583.66 411.78 575.47 423.71 568.69 435.59 563.35 447.42 559.37 459.22 556.56 471.02 554.64 482.82 553.28 494.66 552.1 506.55 550.7 518.51 548.73 530.57 545.85 542.73 541.82 555.03 536.49 567.46 529.79 580.05 521.78 592.81 512.6 605.73 502.49 618.82 491.75 632.08 480.74 645.5 469.82 659.08 459.34 672.79 449.63 686.62 440.94 700.55 433.44 714.56 427.22 728.62 422.26 742.69 418.45 756.76 415.59 770.78 413.4 784.73 411.58 798.57 409.78 812.27 407.65 822.38 409.22 832.49 410.3 842.59 410.78 852.69 410.58 862.79 409.65 872.88 407.99 882.96 405.6 893.04 402.56 903.11 398.93 913.18 394.84 923.24 390.41 933.28 385.8 943.32 381.16 953.35 376.64 963.37 372.41 973.38 368.59 983.37 365.31 993.36 362.66 1003.33 360.7 1013.29 359.46 1023.24 358.94 1033.17 359.11 1043.09 359.9 1052.99 361.2 1062.88 362.91 1072.75 364.89 1082.61 366.97 1092.45 369.02 1102.27 370.87 1112.08 372.38 1121.86 373.43 1131.63 373.9 1141.38 373.73 1151.11 372.86 1160.82 371.27 1170.52 368.99 1180.19 366.06 1189.84 362.56 1199.47 358.6 1209.08 354.31 1218.67 349.82 1228.24 345.3 1237.79 340.88 1247.32 336.72 1256.82 332.95 1266.31 329.68 1275.77 327.02 1285.21 325.02 1294.63 323.72 1304.02 323.11 1313.39 323.18 1322.75 323.84 1332.08 325.02 1341.38 326.59 1350.67 328.43 1359.93 330.4 1369.18 332.34 1378.4 334.1 1387.6 335.55 1396.78 336.56 1405.93 337.03 1415.07 336.88 1424.19 336.06 1433.28 334.54" fill="url(#uuunion-grad3)" filter="url(#uuunion-blur2)"></path></svg>